<?xml version="1.0" encoding="utf-8"?>
<!-- Generator: Adobe Illustrator 15.1.0, SVG Export Plug-In . SVG Version: 6.00 Build 0)  -->
<!DOCTYPE svg PUBLIC "-//W3C//DTD SVG 1.1//EN" "http://www.w3.org/Graphics/SVG/1.1/DTD/svg11.dtd">
<svg version="1.1" id="Layer_1" xmlns="http://www.w3.org/2000/svg" xmlns:xlink="http://www.w3.org/1999/xlink" x="0px" y="0px"
	 width="898px" height="304px" viewBox="0 0 898 304" enable-background="new 0 0 898 304" xml:space="preserve">
<g>
	<path fill="#FFFFFF" d="M27,107.3c4.1,0,7.5,1.1,9.6,3.7v4.5c0,31.8,14.5,45.8,30.1,45.8c8.9,0,15.9-8.2,15.9-20.1
		c0-7.8-1.5-14-23.2-41.6c-12.3-16-16.3-28.9-16.3-43.5c0-26,20.1-53.8,49.5-53.8c25.2,0,35.3,14.5,35.3,28.5
		c0,9.1-4.9,16.6-10,19.2c-12.3-10.3-21.1-15-29.7-15c-5.1,0-9.4,4.5-9.4,11.2c0,7.5,3.9,16.6,17.5,35.5
		c19.6,27.9,22.9,37.7,22.9,51.4c0,26.4-24.3,58-63.6,58c-36,0-54.3-21.199-54.3-47C1.5,127.1,10.6,107.3,27,107.3z"/>
	<path fill="#FFFFFF" d="M142.9,95.8c-4.7-0.5-8.6-0.9-8.6-6.1c0-7.2,5.1-13.9,14.7-14c0.3-5,0.5-8.7,1.4-17.3
		c2.1-20.6,14.7-35.3,30.7-35.3c10.7,0,15.6,3.8,15.6,13.8c0,7.4-2.9,12.7-15.2,37.6c7.3-0.3,17-1,20.1-1.6c2.9,2.1,4.5,6.3,4.5,9.8
		c0,8.8-5.8,15.6-13.5,15.6c-5.5,0-10.3-0.3-17.1-1.4c-6.4,25.7-8.2,38.8-8.2,42.3c0,5.5,1.5,8.2,6.3,8.2c9.6,0,25.6-11.2,41.6-33.6
		c4.5,0,9.4,3.2,9.4,7.9c0,13.8-35.8,55.7-62.7,55.7c-18,0-30.1-9.4-30.1-30.9C131.8,139.7,134.1,125.5,142.9,95.8z"/>
	<path fill="#FFFFFF" d="M281.4,64.5c13,0,22.7,9.3,22.7,19c0,4.3-0.9,8.8-4.4,18.3c-4.9,13.4-14.7,35-14.7,39.5
		c0,3,1.4,3.7,3.3,3.7c5.3,0,16.7-9.4,31.601-30.4c4.899,0,9.6,3,9.6,7.2c0,8.3-11.7,23.6-25.3,35.5c-11,9.8-23.3,17.3-33.2,17.3
		c-9.6,0-15.5-3-15.5-15.199c0-3.301,0.5-7.2,1.4-12.2c-11.2,21.3-25.4,31.1-36,31.1c-13.7,0-17.1-7.899-17.1-22
		c0-7,3.3-20.5,9.4-35.6c-2.6-5-3-9.8-3-14.5c0-14.5,22.4-40.6,38.8-40.6c7.2,0,11.2,2.3,11.2,9.4c0,7.5-5.9,21.3-18,40.9
		c-2.3,8.5-3.8,15.5-3.8,19.2c0,3.8,1.4,6.1,4.7,6.1c4,0,11.5-5.7,16.2-10.6c7.9-25.2,11.3-41.7,12.4-61.7
		C273.9,65.9,277.9,64.5,281.4,64.5z"/>
	<path fill="#FFFFFF" d="M404.6,74c0,8.4-6.399,15.9-19,15.9c-14.199,0-29-17.2-29-38.4c0-26.2,17.601-50.5,51-50.5
		c11.5,0,19,0.4,36.9,3.8c59,10.5,76.7,12.2,99.4,12.4c1.699,1.7,2.8,6.1,2.8,8.9c0,14.7-14.2,24.5-31.8,24.5
		c-7.9,0-20.101-1.2-30.601-4.2c-3.5,10.5-5.399,19.6-8,34.4c3.8,0.5,7,1.1,10.101,1.1c11.399-0.3,18.399-1.7,24.5-3.5
		c2.1,1.7,4.199,5.8,4.199,9.1c0,15.4-11.6,22.9-27.6,22.9c-3.2,0-7.1-0.6-10.3-1.1c-1.9-0.3-3.7-0.6-5.601-1
		c-0.699,4-5.899,24.8-6.6,28.1c-9.4,41.6-30.1,72-63.4,72c-23.399,0-35.8-13.101-35.8-33.4c0-17.6,11.101-37.1,66.4-74.2
		c-3.9-3.3-6.3-8.1-6.3-12.8c0-4.1,1.899-7.9,6.3-10.3c2.1-1.2,4.899-1.7,8.2-1.9c3.199-13.3,7.5-23,15.199-36.5
		C430.8,31.4,414,28.8,401.4,28.8C388.8,28.8,383,35,383,46C383,55.4,388.5,64.6,404.6,74z M395.6,171.8
		c0,9.601,3.5,13.101,8.7,13.101c8.7,0,17.7-19.2,25-59.2C402.4,150.8,395.6,163.1,395.6,171.8z"/>
	<path fill="#FFFFFF" d="M587.2,97c0,4.7-2.5,10.2-6.3,17.8c-5.4,10.7-10,22.3-10,28c0,3.4,0.899,5.7,4,5.7
		c6.5,0,22.899-14.5,35.3-33.9c5.8,0,9.8,3.7,9.8,7.2c0,14.8-40,56.3-61.5,56.3c-14.2,0-22.2-6.3-22.2-19.6
		c0-15.4,11.4-35.3,11.4-41.4c0-2.8-2.5-4.2-7.7-6.3c-7.2,13.8-12.6,22-20.3,30.7c-5.9,0-9.4-4.3-9.4-9.1c0-1.9,0.5-4,1.7-5.6
		c6.1-8.6,10.6-14.5,14.5-24.1c-1.9-2.1-3.5-5.1-3.5-9.6c0-16.4,24.5-39.5,37.7-39.5c7.899,0,13.3,3.7,13.3,10
		c0,1.7-0.2,3.3-0.7,4.7c-5.7,3-10.399,6.5-13.6,11.7c2.6,1.4,7,3,11,4.2C584.3,88.1,587.2,91.4,587.2,97z"/>
	<path fill="#FFFFFF" d="M599.5,136c0-35.3,28.7-71.4,51.5-71.4c16.2,0,25,7.7,25,24.1c0,19.7-11.5,34.8-43.5,42.1
		c0,10.5,2.1,16.3,11.2,16.3c15.8,0,36.5-13.5,49.8-33.9c5.7,0.2,8.9,4.1,8.9,7.7c0,17.4-39.101,54.5-69.5,54.5
		C610.1,175.5,599.5,161.3,599.5,136z M645.1,89.2c-3.3,0-9.5,8-11.199,24.3c13.1-2.3,15.899-9.6,15.899-16.6
		C649.8,92,647.9,89.2,645.1,89.2z"/>
	<path fill="#FFFFFF" d="M682.2,136c0-35.3,28.7-71.4,51.5-71.4c16.2,0,25,7.7,25,24.1c0,19.7-11.5,34.8-43.5,42.1
		c0,10.5,2.1,16.3,11.2,16.3c15.8,0,36.5-13.5,49.8-33.9c5.7,0.2,8.899,4.1,8.899,7.7c0,17.4-39.1,54.5-69.5,54.5
		C692.8,175.5,682.2,161.3,682.2,136z M727.9,89.2c-3.301,0-9.5,8-11.2,24.3c13.1-2.3,15.899-9.6,15.899-16.6
		C732.5,92,730.7,89.2,727.9,89.2z"/>
	<path fill="#FFFFFF" d="M770.9,104c0-13.8,20.8-38.3,35.3-38.3c8,0,10,2.8,10,9.8c0,5.8-3,22.2-9.3,33.7
		c17-29.5,33.199-40,43.399-40c10.8,0,16.2,7,16.2,16.2c0,6.2-1.8,14.5-6.8,25.7c-4.2,10.3-11.7,26.9-11.7,32.8
		c0,2.6,1.2,3.5,3.3,3.5c4.7,0,19.4-11.9,33.9-32.7c4.399,0,9.1,3,9.1,7.7c0,14.7-39.5,54.2-61,54.2c-13.8,0-18.399-6-18.399-19
		c0-15.399,11.899-39,11.899-44.2c0-1.9-0.899-2.8-2.8-2.8c-2.1,0-9.8,3.5-19,16.2c-3.4,18-4.6,28.5-5.4,44.4c-2.3,2.3-4,3-9.399,3
		c-13.101,0-22.7-12.4-22.9-26.4c0-8.9,1.8-18.3,5.9-29.2C771.3,114.1,770.9,108.7,770.9,104z"/>
</g>
<g>
	<path fill="#FFFFFF" d="M183.771,256.139l7.896,1.607l-17.957,45.136h-6.568l-8.524-21.38l-8.384,21.38h-6.638L125.5,257.746
		l8.524-1.607l14.044,35.844l7.197-18.446l-6.218-15.79l8.314-1.607l13.275,34.167L183.771,256.139z"/>
	<path fill="#FFFFFF" d="M216.125,275.633h16.28v6.777h-16.28v13.415h21.031l-0.978,7.057H207.74v-45.835h26.271v6.987h-17.887
		V275.633z"/>
	<path fill="#FFFFFF" d="M253.367,257.326c6.567-0.628,8.943-0.769,12.856-0.769c10.271,0,16.419,4.402,16.419,11.809
		c0,4.332-1.957,7.196-6.777,9.852c6.288,1.607,9.782,5.869,9.782,11.947c0,8.315-6.917,13.206-18.585,13.206
		c-4.891,0-7.197-0.14-13.694-0.839V257.326z M261.612,276.541h6.568c2.794,0,5.729-3.354,5.938-6.917
		c0.21-4.123-3.074-6.917-8.245-6.917c-1.607,0-2.655,0-4.262,0.14V276.541z M261.612,296.873c2.725,0.35,3.284,0.35,6.079,0.35
		c5.659,0,9.083-2.586,9.083-6.917c0-2.935-1.816-5.729-4.611-6.987c-1.258-0.559-3.144-0.839-5.59-0.839h-4.96V296.873z"/>
	<path fill="#FFFFFF" d="M327.502,257.257c6.498-0.489,7.895-0.559,13.834-0.559c4.053,0,8.664,0.769,12.577,2.165
		c9.153,3.215,14.393,11.18,14.393,22.01c0,7.267-3.843,14.532-9.642,18.306c-2.166,1.468-4.821,2.445-8.245,3.145
		c-2.515,0.488-6.638,0.908-8.943,0.908h-3.913c-3.563,0-5.939-0.21-10.061-0.629V257.257z M336.026,296.034
		c2.655,0.42,2.725,0.42,6.428,0.42c5.939,0,10.62-1.817,13.345-5.171c2.306-2.864,3.423-6.428,3.423-10.899
		c0-6.079-3.423-11.878-8.524-14.394c-2.516-1.258-5.45-2.026-8.664-2.235c-1.048-0.07-2.096-0.14-3.214-0.07h-1.607
		c0,0-0.629,0-1.188,0.07V296.034z"/>
	<path fill="#FFFFFF" d="M393.95,275.633h16.28v6.777h-16.28v13.415h21.031l-0.978,7.057h-28.437v-45.835h26.271v6.987H393.95
		V275.633z"/>
	<path fill="#FFFFFF" d="M463.334,256.139l7.895,1.607l-18.655,45.136h-6.777l-18.655-45.136l8.594-1.607l13.833,34.795
		L463.334,256.139z"/>
	<path fill="#FFFFFF" d="M495.615,275.633h16.28v6.777h-16.28v13.415h21.031l-0.979,7.057h-28.437v-45.835h26.271v6.987h-17.887
		V275.633z"/>
	<path fill="#FFFFFF" d="M541.383,295.615h19.843l-1.048,7.267h-27.319v-45.835h8.524V295.615z"/>
	<path fill="#FFFFFF" d="M619.429,280.034c0,14.254-9.782,23.966-24.036,23.966c-13.555,0-23.545-10.201-23.545-24.105
		c0-13.415,9.642-23.337,23.336-23.965C608.809,255.301,619.429,265.851,619.429,280.034z M584.004,268.855
		c-2.025,2.725-2.934,6.148-2.934,10.689c0,4.402,2.025,9.503,4.891,12.507c2.445,2.585,5.799,4.053,9.572,4.263
		c8.803,0.559,14.742-5.729,14.742-15.651c0-9.852-6.638-17.258-15.441-17.258C590.433,263.405,586.52,265.361,584.004,268.855z"/>
	<path fill="#FFFFFF" d="M638.715,257.117c0.699-0.07,1.049-0.07,1.049-0.07c3.144-0.279,7.336-0.489,9.082-0.489
		c6.987,0,11.389,1.188,14.604,3.983c3.214,2.794,4.751,6.428,4.751,11.318c0,5.24-3.074,10.201-7.896,12.577
		c-2.725,1.397-6.009,2.025-10.899,2.025c-0.489,0-2.655-0.069-4.263-0.209v16.629h-8.523v-45.625L638.715,257.117z
		 M645.143,279.685c1.537,0.07,3.215,0.141,4.193,0.141c6.497,0,10.271-2.935,10.271-7.966c0-5.31-3.563-8.244-10.132-8.244
		c-0.908,0-2.725,0.069-4.332,0.14V279.685z"/>
	<path fill="#FFFFFF" d="M693.285,275.633h16.279v6.777h-16.279v13.415h21.031l-0.979,7.057H684.9v-45.835h26.271v6.987h-17.887
		V275.633z"/>
	<path fill="#FFFFFF" d="M730.527,257.257c5.311-0.559,8.176-0.699,12.438-0.699c12.227,0,18.865,4.961,18.865,14.114
		c0,3.913-1.817,7.686-4.822,10.062c-1.047,0.838-1.746,1.257-3.563,2.026l13.484,20.122h-9.991l-11.319-17.537h-6.567v17.537
		h-8.524V257.257z M739.052,279.196h8.175c3.074,0,6.148-3.843,6.148-7.826c0-5.101-3.633-8.104-9.852-8.104h-1.117
		c-0.979,0-1.188,0-3.354,0.069V279.196z"/>
</g>
</svg>
