<?xml version="1.0" encoding="utf-8"?>
<!-- Generator: Adobe Illustrator 15.1.0, SVG Export Plug-In . SVG Version: 6.00 Build 0)  -->
<!DOCTYPE svg PUBLIC "-//W3C//DTD SVG 1.1 Tiny//EN" "http://www.w3.org/Graphics/SVG/1.1/DTD/svg11-tiny.dtd">
<svg version="1.1" baseProfile="tiny" id="Layer_1" xmlns="http://www.w3.org/2000/svg" xmlns:xlink="http://www.w3.org/1999/xlink"
	 x="0px" y="0px" width="898px" height="304px" viewBox="0 0 898 304" xml:space="preserve">
<g>
	<g>
		<path fill="#FFFFFF" d="M27,107.3c4.1,0,7.5,1.1,9.6,3.7v4.5c0,31.8,14.5,45.8,30.1,45.8c8.9,0,15.9-8.2,15.9-20.1
			c0-7.8-1.5-14-23.2-41.6c-12.3-16-16.3-28.9-16.3-43.5c0-26,20.1-53.8,49.5-53.8c25.2,0,35.3,14.5,35.3,28.5
			c0,9.1-4.9,16.6-10,19.2c-12.3-10.3-21.1-15-29.7-15c-5.1,0-9.4,4.5-9.4,11.2c0,7.5,3.9,16.6,17.5,35.5
			c19.6,27.9,22.9,37.7,22.9,51.4c0,26.4-24.3,58-63.6,58c-36,0-54.3-21.2-54.3-47C1.5,127.1,10.6,107.3,27,107.3z"/>
		<path fill="#FFFFFF" d="M142.9,95.8c-4.7-0.5-8.6-0.9-8.6-6.1c0-7.2,5.1-13.9,14.7-14c0.3-5,0.5-8.7,1.4-17.3
			c2.1-20.6,14.7-35.3,30.7-35.3c10.7,0,15.6,3.8,15.6,13.8c0,7.4-2.9,12.7-15.2,37.6c7.3-0.3,17-1,20.1-1.6
			c2.9,2.1,4.5,6.3,4.5,9.8c0,8.8-5.8,15.6-13.5,15.6c-5.5,0-10.3-0.3-17.1-1.4c-6.4,25.7-8.2,38.8-8.2,42.3c0,5.5,1.5,8.2,6.3,8.2
			c9.6,0,25.6-11.2,41.6-33.6c4.5,0,9.4,3.2,9.4,7.9c0,13.8-35.8,55.7-62.7,55.7c-18,0-30.1-9.4-30.1-30.9
			C131.8,139.7,134.1,125.5,142.9,95.8z"/>
		<path fill="#FFFFFF" d="M281.4,64.5c13,0,22.7,9.3,22.7,19c0,4.3-0.9,8.8-4.4,18.3c-4.9,13.4-14.7,35-14.7,39.5
			c0,3,1.4,3.7,3.3,3.7c5.3,0,16.7-9.4,31.6-30.4c4.9,0,9.6,3,9.6,7.2c0,8.3-11.7,23.6-25.3,35.5c-11,9.8-23.3,17.3-33.2,17.3
			c-9.6,0-15.5-3-15.5-15.2c0-3.3,0.5-7.2,1.4-12.2c-11.2,21.3-25.4,31.1-36,31.1c-13.7,0-17.1-7.9-17.1-22c0-7,3.3-20.5,9.4-35.6
			c-2.6-5-3-9.8-3-14.5c0-14.5,22.4-40.6,38.8-40.6c7.2,0,11.2,2.3,11.2,9.4c0,7.5-5.9,21.3-18,40.9c-2.3,8.5-3.8,15.5-3.8,19.2
			c0,3.8,1.4,6.1,4.7,6.1c4,0,11.5-5.7,16.2-10.6c7.9-25.2,11.3-41.7,12.4-61.7C273.9,65.9,277.9,64.5,281.4,64.5z"/>
		<path fill="#FFFFFF" d="M404.6,74c0,8.4-6.4,15.9-19,15.9c-14.2,0-29-17.2-29-38.4c0-26.2,17.6-50.5,51-50.5
			c11.5,0,19,0.4,36.9,3.8c59,10.5,76.7,12.2,99.4,12.4c1.7,1.7,2.8,6.1,2.8,8.9c0,14.7-14.2,24.5-31.8,24.5
			c-7.9,0-20.1-1.2-30.6-4.2c-3.5,10.5-5.4,19.6-8,34.4c3.8,0.5,7,1.1,10.1,1.1c11.4-0.3,18.4-1.7,24.5-3.5c2.1,1.7,4.2,5.8,4.2,9.1
			c0,15.4-11.6,22.9-27.6,22.9c-3.2,0-7.1-0.6-10.3-1.1c-1.9-0.3-3.7-0.6-5.6-1c-0.7,4-5.9,24.8-6.6,28.1c-9.4,41.6-30.1,72-63.4,72
			c-23.4,0-35.8-13.1-35.8-33.4c0-17.6,11.1-37.1,66.4-74.2c-3.9-3.3-6.3-8.1-6.3-12.8c0-4.1,1.9-7.9,6.3-10.3
			c2.1-1.2,4.9-1.7,8.2-1.9c3.2-13.3,7.5-23,15.2-36.5c-24.8-7.9-41.6-10.5-54.2-10.5S383,35,383,46C383,55.4,388.5,64.6,404.6,74z
			 M395.6,171.8c0,9.6,3.5,13.1,8.7,13.1c8.7,0,17.7-19.2,25-59.2C402.4,150.8,395.6,163.1,395.6,171.8z"/>
		<path fill="#FFFFFF" d="M587.2,97c0,4.7-2.5,10.2-6.3,17.8c-5.4,10.7-10,22.3-10,28c0,3.4,0.9,5.7,4,5.7
			c6.5,0,22.9-14.5,35.3-33.9c5.8,0,9.8,3.7,9.8,7.2c0,14.8-40,56.3-61.5,56.3c-14.2,0-22.2-6.3-22.2-19.6
			c0-15.4,11.4-35.3,11.4-41.4c0-2.8-2.5-4.2-7.7-6.3c-7.2,13.8-12.6,22-20.3,30.7c-5.9,0-9.4-4.3-9.4-9.1c0-1.9,0.5-4,1.7-5.6
			c6.1-8.6,10.6-14.5,14.5-24.1c-1.9-2.1-3.5-5.1-3.5-9.6c0-16.4,24.5-39.5,37.7-39.5c7.9,0,13.3,3.7,13.3,10c0,1.7-0.2,3.3-0.7,4.7
			c-5.7,3-10.4,6.5-13.6,11.7c2.6,1.4,7,3,11,4.2C584.3,88.1,587.2,91.4,587.2,97z"/>
		<path fill="#FFFFFF" d="M599.5,136c0-35.3,28.7-71.4,51.5-71.4c16.2,0,25,7.7,25,24.1c0,19.7-11.5,34.8-43.5,42.1
			c0,10.5,2.1,16.3,11.2,16.3c15.8,0,36.5-13.5,49.8-33.9c5.7,0.2,8.9,4.1,8.9,7.7c0,17.4-39.1,54.5-69.5,54.5
			C610.1,175.5,599.5,161.3,599.5,136z M645.1,89.2c-3.3,0-9.5,8-11.2,24.3c13.1-2.3,15.9-9.6,15.9-16.6
			C649.8,92,647.9,89.2,645.1,89.2z"/>
		<path fill="#FFFFFF" d="M682.2,136c0-35.3,28.7-71.4,51.5-71.4c16.2,0,25,7.7,25,24.1c0,19.7-11.5,34.8-43.5,42.1
			c0,10.5,2.1,16.3,11.2,16.3c15.8,0,36.5-13.5,49.8-33.9c5.7,0.2,8.9,4.1,8.9,7.7c0,17.4-39.1,54.5-69.5,54.5
			C692.8,175.5,682.2,161.3,682.2,136z M727.9,89.2c-3.3,0-9.5,8-11.2,24.3c13.1-2.3,15.9-9.6,15.9-16.6
			C732.5,92,730.7,89.2,727.9,89.2z"/>
		<path fill="#FFFFFF" d="M770.9,104c0-13.8,20.8-38.3,35.3-38.3c8,0,10,2.8,10,9.8c0,5.8-3,22.2-9.3,33.7c17-29.5,33.2-40,43.4-40
			c10.8,0,16.2,7,16.2,16.2c0,6.2-1.8,14.5-6.8,25.7c-4.2,10.3-11.7,26.9-11.7,32.8c0,2.6,1.2,3.5,3.3,3.5
			c4.7,0,19.4-11.9,33.9-32.7c4.4,0,9.1,3,9.1,7.7c0,14.7-39.5,54.2-61,54.2c-13.8,0-18.4-6-18.4-19c0-15.4,11.9-39,11.9-44.2
			c0-1.9-0.9-2.8-2.8-2.8c-2.1,0-9.8,3.5-19,16.2c-3.4,18-4.6,28.5-5.4,44.4c-2.3,2.3-4,3-9.4,3c-13.1,0-22.7-12.4-22.9-26.4
			c0-8.9,1.8-18.3,5.9-29.2C771.3,114.1,770.9,108.7,770.9,104z"/>
	</g>
	<g>
		<path fill="#FFFFFF" d="M58,265.9c-3.6-2.3-6.6-3.2-10.2-3.2c-8.6,0-14.5,6.3-14.5,15.6c0,4.6,1.6,8.8,4.5,11.8
			c2.5,2.5,6.5,4.3,10.2,4.3c4.5,0,7.6-1,11.1-3.3l3.4,6.5c-4.9,3.4-9.3,4.7-15.5,4.7c-5.8,0-11.9-2.5-16.1-6.6
			c-4.4-4.3-6.6-10.2-6.6-17.5c0-6.5,2.9-13,7.4-17.2c4.2-3.7,10.1-5.9,16-5.9c5.5,0,9.8,1.2,14.4,4.1L58,265.9z"/>
		<path fill="#FFFFFF" d="M78.8,256.3c5.2-0.5,8-0.7,12.2-0.7c12,0,18.5,4.9,18.5,13.9c0,3.8-1.8,7.5-4.7,9.9c-1,0.8-1.7,1.2-3.5,2
			l13.2,19.8h-9.8l-11.1-17.2h-6.5v17.2h-8.4V256.3z M87.2,277.9h8c3,0,6-3.8,6-7.7c0-5-3.6-8-9.7-8h-1.1c-1,0-1.2,0-3.3,0.1V277.9z
			"/>
		<path fill="#FFFFFF" d="M138.5,274.4h16v6.7h-16v13.2h20.7l-1,6.9h-27.9v-45H156v6.9h-17.6V274.4z"/>
		<path fill="#FFFFFF" d="M203.2,288.7h-17.8l-5.1,12.5h-8.1l19.3-45.8h6.5l19,45.8h-8.9L203.2,288.7z M194.4,266.2l-6.8,16.7h13.3
			L194.4,266.2z"/>
		<path fill="#FFFFFF" d="M243.3,301.1h-8.4V263h-14.5v-6.9h37.3v6.9h-14.5V301.1z"/>
		<path fill="#FFFFFF" d="M283,301.1h-8.4v-45h8.4V301.1z"/>
		<path fill="#FFFFFF" d="M335,255.2l7.8,1.6l-18.3,44.3h-6.7l-18.3-44.3l8.4-1.6l13.6,34.2L335,255.2z"/>
		<path fill="#FFFFFF" d="M367.4,274.4h16v6.7h-16v13.2h20.7l-1,6.9h-27.9v-45H385v6.9h-17.6V274.4z"/>
		<path fill="#FFFFFF" d="M429.7,256.3c6.4-0.5,7.8-0.5,13.6-0.5c4,0,8.5,0.8,12.4,2.1c9,3.2,14.1,11,14.1,21.6
			c0,7.1-3.8,14.3-9.5,18c-2.1,1.4-4.7,2.4-8.1,3.1c-2.5,0.5-6.5,0.9-8.8,0.9h-3.8c-3.5,0-5.8-0.2-9.9-0.6V256.3z M438,294.4
			c2.6,0.4,2.7,0.4,6.3,0.4c5.8,0,10.4-1.8,13.1-5.1c2.3-2.8,3.4-6.3,3.4-10.7c0-6-3.4-11.7-8.4-14.1c-2.5-1.2-5.4-2-8.5-2.2
			c-1-0.1-2.1-0.1-3.2-0.1h-1.6c0,0-0.6,0-1.2,0.1V294.4z"/>
		<path fill="#FFFFFF" d="M495.6,274.4h16v6.7h-16v13.2h20.7l-1,6.9h-27.9v-45h25.8v6.9h-17.6V274.4z"/>
		<path fill="#FFFFFF" d="M564.4,255.2l7.8,1.6l-18.3,44.3h-6.7l-18.3-44.3l8.4-1.6l13.6,34.2L564.4,255.2z"/>
		<path fill="#FFFFFF" d="M596.8,274.4h16v6.7h-16v13.2h20.7l-1,6.9h-27.9v-45h25.8v6.9h-17.6V274.4z"/>
		<path fill="#FFFFFF" d="M642.5,294H662l-1,7.1h-26.8v-45h8.4V294z"/>
		<path fill="#FFFFFF" d="M719.8,278.7c0,14-9.6,23.5-23.6,23.5c-13.3,0-23.1-10-23.1-23.7c0-13.2,9.5-22.9,22.9-23.5
			C709.4,254.4,719.8,264.8,719.8,278.7z M685,267.7c-2,2.7-2.9,6-2.9,10.5c0,4.3,2,9.3,4.8,12.3c2.4,2.5,5.7,4,9.4,4.2
			c8.6,0.5,14.5-5.6,14.5-15.4c0-9.7-6.5-17-15.2-17C691.3,262.4,687.5,264.3,685,267.7z"/>
		<path fill="#FFFFFF" d="M739.5,256.2c0.7-0.1,1-0.1,1-0.1c3.1-0.3,7.2-0.5,8.9-0.5c6.9,0,11.2,1.2,14.3,3.9
			c3.2,2.7,4.7,6.3,4.7,11.1c0,5.1-3,10-7.8,12.4c-2.7,1.4-5.9,2-10.7,2c-0.5,0-2.6-0.1-4.2-0.2v16.3h-8.4v-44.8L739.5,256.2z
			 M745.8,278.4c1.5,0.1,3.2,0.1,4.1,0.1c6.4,0,10.1-2.9,10.1-7.8c0-5.2-3.5-8.1-10-8.1c-0.9,0-2.7,0.1-4.3,0.1V278.4z"/>
		<path fill="#FFFFFF" d="M793.7,274.4h16v6.7h-16v13.2h20.7l-1,6.9h-27.9v-45h25.8v6.9h-17.6V274.4z"/>
		<path fill="#FFFFFF" d="M831,256.3c5.2-0.5,8-0.7,12.2-0.7c12,0,18.5,4.9,18.5,13.9c0,3.8-1.8,7.5-4.7,9.9c-1,0.8-1.7,1.2-3.5,2
			l13.2,19.8H857l-11.1-17.2h-6.5v17.2H831V256.3z M839.4,277.9h8c3,0,6-3.8,6-7.7c0-5-3.6-8-9.7-8h-1.1c-1,0-1.2,0-3.3,0.1V277.9z"
			/>
	</g>
</g>
</svg>
